HIERARCHY
ROOT Hips
{
	OFFSET	0.00	0.00	0.00
	CHANNELS 6 Xposition Yposition Zposition Zrotation Xrotation Yrotation
	JOINT LeftUpLeg
	{
		OFFSET	 0.126116	-0.014019	-0.065224
		CHANNELS 3 Zrotation Xrotation Yrotation
		JOINT LeftLeg
		{
			OFFSET	 0.000000	 0.000000	 0.569914
			CHANNELS 3 Zrotation Xrotation Yrotation
			JOINT LeftFoot
			{
				OFFSET	 0.000000	 0.000000	 0.544423
				CHANNELS 3 Zrotation Xrotation Yrotation
				JOINT LeftToeBase
				{
					OFFSET	 0.000000	 0.000000	 0.207117
					CHANNELS 3 Zrotation Xrotation Yrotation
					End Site
					{
						OFFSET	 0.000000	 0.000000	 0.207117
					}
				}
			}
		}
	}
	JOINT RightUpLeg
	{
		OFFSET	-0.124023	-0.008373	-0.065224
		CHANNELS 3 Zrotation Xrotation Yrotation
		JOINT RightLeg
		{
			OFFSET	 0.000000	 0.000000	 0.570047
			CHANNELS 3 Zrotation Xrotation Yrotation
			JOINT RightFoot
			{
				OFFSET	 0.000000	 0.000000	 0.544354
				CHANNELS 3 Zrotation Xrotation Yrotation
				JOINT RightToeBase
				{
					OFFSET	 0.000000	 0.000000	 0.207540
					CHANNELS 3 Zrotation Xrotation Yrotation
					End Site
					{
						OFFSET	 0.000000	 0.000000	 0.207540
					}
				}
			}
		}
	}
	JOINT Spine
	{
		OFFSET	 0.000184	-0.007763	 0.117403
		CHANNELS 3 Zrotation Xrotation Yrotation
		JOINT Spine1
		{
			OFFSET	 0.000000	 0.000000	 0.137269
			CHANNELS 3 Zrotation Xrotation Yrotation
			JOINT Spine2
			{
				OFFSET	 0.000000	 0.000000	 0.156879
				CHANNELS 3 Zrotation Xrotation Yrotation
				JOINT LeftShoulder
				{
					OFFSET	 0.080501	-0.002496	 0.160144
					CHANNELS 3 Zrotation Xrotation Yrotation
					JOINT LeftArm
					{
						OFFSET	 0.000000	 0.000000	 0.164363
						CHANNELS 3 Zrotation Xrotation Yrotation
						JOINT LeftForeArm
						{
							OFFSET	 0.000000	 0.000000	 0.364576
							CHANNELS 3 Zrotation Xrotation Yrotation
							JOINT LeftHand
							{
								OFFSET	 0.000000	 0.000000	 0.360812
								CHANNELS 3 Zrotation Xrotation Yrotation
								JOINT LeftHandIndex1
								{
									OFFSET	 0.000000	 0.000000	 0.086006
									CHANNELS 3 Zrotation Xrotation Yrotation
									JOINT LeftHandIndex2
									{
										OFFSET	 0.000000	 0.000000	 0.047236
										CHANNELS 3 Zrotation Xrotation Yrotation
										JOINT LeftHandIndex3
										{
											OFFSET	-0.004284	-0.000551	 0.038166
											CHANNELS 3 Zrotation Xrotation Yrotation
											End Site
											{
												OFFSET	-0.004284	-0.000551	 0.038166
											}
										}
									}
								}
							}
						}
					}
				}
				JOINT Neck
				{
					OFFSET	 0.000000	 0.000000	 0.176489
					CHANNELS 3 Zrotation Xrotation Yrotation
					JOINT Head
					{
						OFFSET	 0.000000	-0.001747	 0.077940
						CHANNELS 3 Zrotation Xrotation Yrotation
						End Site
						{
							OFFSET	 0.000000	-0.001747	 0.077940
						}
					}
				}
				JOINT RightShoulder
				{
					OFFSET	-0.080363	 0.000306	 0.159706
					CHANNELS 3 Zrotation Xrotation Yrotation
					JOINT RightArm
					{
						OFFSET	 0.000000	 0.000000	 0.164196
						CHANNELS 3 Zrotation Xrotation Yrotation
						JOINT RightForeArm
						{
							OFFSET	 0.000000	 0.000000	 0.365611
							CHANNELS 3 Zrotation Xrotation Yrotation
							JOINT RightHand
							{
								OFFSET	 0.000000	 0.000000	 0.360648
								CHANNELS 3 Zrotation Xrotation Yrotation
								JOINT RightHandIndex1
								{
									OFFSET	 0.000000	 0.000000	 0.069977
									CHANNELS 3 Zrotation Xrotation Yrotation
									JOINT RightHandIndex2
									{
										OFFSET	 0.000000	 0.000000	 0.052305
										CHANNELS 3 Zrotation Xrotation Yrotation
										JOINT RightHandIndex3
										{
											OFFSET	 0.009002	-0.000782	 0.042196
											CHANNELS 3 Zrotation Xrotation Yrotation
											End Site
											{
												OFFSET	 0.009002	-0.000782	 0.042196
											}
										}
									}
								}
							}
						}
					}
				}
			}
		}
	}
}
MOTION
Frames:    10
Frame Time: 0.03333334
-0.000396	 0.019836	 1.269793	 0.003707	 0.009161	-0.053841	-5.029086	-2.125157	 178.681900	 1.459300	-13.026780	-0.762618	-6.423381	 71.877790	 0.229387	-2.385833	 28.452760	 0.000004	 4.906551	-2.651501	-178.572700	-1.437661	-13.645530	 0.785508	 6.319458	 72.031690	-0.280236	 2.384658	 28.388730	 0.000004	 1.286381	 2.714281	 0.000230	 0.667906	 3.679074	 0.336168	-2.007002	-4.679062	-0.474270	-91.776120	 78.527450	 179.999900	 64.228770	 42.323790	-56.078680	-7.900791	 3.484738	-8.738845	-29.060730	 4.111217	-4.361001	-2.635965	 4.993658	 6.788941	-5.165319	 0.784187	 3.516649	-5.225038	 0.466231	 0.424329	-0.000002	-3.783157	-0.089647	-1.939172	 5.018594	 0.084975	 89.782150	 78.203920	 180.000000	-63.775530	 41.747460	 54.309840	 7.575884	 5.346892	 12.285270	 28.070160	 3.220568	 8.902237	 6.112037	 4.509576	-0.364401	 4.968462	 1.518543	-9.347576	 5.168945	 0.703820	 2.021906
-0.000397	 0.019922	 1.268519	 0.003708	 0.009151	-0.053847	-5.079191	-2.667145	 178.727600	 1.443341	-14.142480	-0.830560	-6.735643	 72.442990	 0.557678	-2.385833	 28.452760	 0.000004	 4.957141	-3.170969	-178.615700	-1.421927	-14.714820	 0.849754	 6.616374	 72.573460	-0.592178	 2.384658	 28.388730	 0.000004	 1.286373	 2.715437	 0.000198	 0.667860	 3.675096	 0.336206	-2.006896	-4.673992	-0.474126	-91.776280	 78.527490	-179.999900	 64.216390	 42.326110	-56.062540	-7.897491	 3.488554	-8.748453	-29.060730	 4.111216	-4.361014	-2.635965	 4.993658	 6.788941	-5.165319	 0.784187	 3.516649	-5.225038	 0.466231	 0.424329	-0.000002	-3.783157	-0.089647	-1.939204	 5.021004	 0.085017	 89.782110	 78.203900	 180.000000	-63.658930	 41.658470	 54.363770	 7.326879	 5.339240	 12.366110	 28.082400	 3.135381	 8.865775	 6.112037	 4.509576	-0.364401	 4.968462	 1.518543	-9.347576	 5.168945	 0.703820	 2.021906
-0.000399	 0.020036	 1.266828	 0.003715	 0.009147	-0.053834	-5.143956	-3.328572	 178.783100	 1.421884	-15.504500	-0.914416	-7.146601	 73.132480	 0.988306	-2.385833	 28.452760	 0.000004	 5.022651	-3.809141	-178.668300	-1.400765	-16.028820	 0.929579	 7.008794	 73.238660	-1.003150	 2.384658	 28.388730	 0.000004	 1.286337	 2.716968	 0.000145	 0.667787	 3.669851	 0.336269	-2.006727	-4.667301	-0.473950	-91.776190	 78.527450	-180.000000	 64.195480	 42.330890	-56.036120	-7.892090	 3.493261	-8.760453	-29.060660	 4.111230	-4.361008	-2.635965	 4.993658	 6.788941	-5.165319	 0.784187	 3.516649	-5.225038	 0.466231	 0.424329	-0.000002	-3.783157	-0.089647	-1.939149	 5.024186	 0.085069	 89.782130	 78.203920	 180.000000	-63.515670	 41.501670	 54.551400	 7.080234	 5.280636	 12.378180	 28.032240	 3.001993	 8.779952	 6.112037	 4.509576	-0.364401	 4.968462	 1.518543	-9.347576	 5.168945	 0.703820	 2.021906
-0.000400	 0.020148	 1.265161	 0.003716	 0.009134	-0.053791	-5.206408	-3.930936	 178.833600	 1.400397	-16.745360	-0.991780	-7.552823	 73.760010	 1.412515	-2.385833	 28.452760	 0.000004	 5.085896	-4.393496	-178.716400	-1.379570	-17.232360	 1.003621	 7.397849	 73.847370	-1.409271	 2.384658	 28.388730	 0.000004	 1.286265	 2.718488	 0.000083	 0.667700	 3.664618	 0.336259	-2.006501	-4.660627	-0.473715	-91.776140	 78.527450	 180.000000	 64.169700	 42.336650	-56.003920	-7.885694	 3.497688	-8.771719	-29.060750	 4.111211	-4.361004	-2.635965	 4.993658	 6.788941	-5.165319	 0.784187	 3.516649	-5.225038	 0.466231	 0.424329	-0.000002	-3.783157	-0.089647	-1.939046	 5.027268	 0.085117	 89.782170	 78.203900	 179.999900	-63.435230	 41.195590	 54.923260	 6.729202	 5.146724	 12.278690	 28.122820	 2.738209	 8.622569	 6.112037	 4.509576	-0.364401	 4.968462	 1.518543	-9.347576	 5.168945	 0.703820	 2.021906
-0.000401	 0.020264	 1.263459	 0.003719	 0.009119	-0.053789	-5.269014	-4.505085	 178.881700	 1.378133	-17.928480	-1.066491	-7.971797	 74.357750	 1.848699	-2.385833	 28.452760	 0.000004	 5.149334	-4.952747	-178.762400	-1.357611	-18.384580	 1.075416	 7.800032	 74.429570	-1.827866	 2.384658	 28.388730	 0.000004	 1.286153	 2.720045	 0.000041	 0.667587	 3.659284	 0.336290	-2.006213	-4.653816	-0.473496	-91.776140	 78.527450	 180.000000	 64.137100	 42.343640	-55.963190	-7.877980	 3.502148	-8.782942	-29.060680	 4.111222	-4.360998	-2.635965	 4.993658	 6.788941	-5.165319	 0.784187	 3.516649	-5.225038	 0.466231	 0.424329	-0.000002	-3.783157	-0.089647	-1.938892	 5.030486	 0.085164	 89.782170	 78.203870	 179.999900	-63.295800	 40.861470	 55.420640	 6.379730	 4.964559	 12.059950	 28.214900	 2.466411	 8.460278	 6.112037	 4.509576	-0.364401	 4.968462	 1.518543	-9.347576	 5.168945	 0.703820	 2.021906
-0.000402	 0.020371	 1.261892	 0.003734	 0.009120	-0.053737	-5.325942	-5.004583	 178.923400	 1.357304	-18.958060	-1.132324	-8.364431	 74.877350	 2.256384	-2.385833	 28.452760	 0.000004	 5.207025	-5.440754	-178.802500	-1.337072	-19.390220	 1.138869	 8.177504	 74.937160	-2.219714	 2.384658	 28.388730	 0.000004	 1.286017	 2.721482	-0.000018	 0.667470	 3.654326	 0.336262	-2.005887	-4.647522	-0.473263	-91.776130	 78.527490	 180.000000	 64.100970	 42.350470	-55.918000	-7.869899	 3.505810	-8.792287	-29.060720	 4.111221	-4.360991	-2.635965	 4.993658	 6.788941	-5.165319	 0.784187	 3.516649	-5.225038	 0.466231	 0.424329	-0.000002	-3.783157	-0.089647	-1.938682	 5.033449	 0.085205	 89.782150	 78.203900	 180.000000	-63.102160	 40.514880	 55.970140	 5.971114	 4.755636	 11.802180	 28.314580	 2.188529	 8.296454	 6.112037	 4.509576	-0.364401	 4.968462	 1.518543	-9.347576	 5.168945	 0.703820	 2.021906
-0.000402	 0.020481	 1.260308	 0.003733	 0.009112	-0.053693	-5.382820	-5.485103	 178.963500	 1.335945	-19.948860	-1.196449	-8.769610	 75.376840	 2.676116	-2.385833	 28.452760	 0.000004	 5.264719	-5.911387	-178.841100	-1.316006	-20.360360	 1.200826	 8.567461	 75.426270	-2.623603	 2.384658	 28.388730	 0.000004	 1.285849	 2.722942	-0.000070	 0.667334	 3.649309	 0.336259	-2.005531	-4.641120	-0.473019	-91.776250	 78.527470	-180.000000	 64.057550	 42.356880	-55.862360	-7.860697	 3.510018	-8.802894	-29.060720	 4.111229	-4.361012	-2.635965	 4.993658	 6.788941	-5.165319	 0.784187	 3.516649	-5.225038	 0.466231	 0.424329	-0.000002	-3.783157	-0.089647	-1.938455	 5.036494	 0.085247	 89.782100	 78.203900	 180.000000	-62.810600	 40.118240	 56.565620	 5.529677	 4.553148	 11.566360	 28.419090	 1.897530	 8.125189	 6.112037	 4.509576	-0.364401	 4.968462	 1.518543	-9.347576	 5.168945	 0.703820	 2.021906
-0.000402	 0.020605	 1.258523	 0.003731	 0.009095	-0.053680	-5.446249	-6.001231	 179.006600	 1.311520	-21.013380	-1.266250	-9.238045	 75.912760	 3.160245	-2.385833	 28.452760	 0.000004	 5.329072	-6.417884	-178.882500	-1.291915	-21.404700	 1.268406	 9.018655	 75.952160	-3.089859	 2.384658	 28.388730	 0.000004	 1.285622	 2.724592	-0.000109	 0.667162	 3.643680	 0.336275	-2.005055	-4.633925	-0.472751	-91.776150	 78.527470	 180.000000	 63.999210	 42.363110	-55.785930	-7.849338	 3.515145	-8.815868	-29.060700	 4.111208	-4.361001	-2.635965	 4.993658	 6.788941	-5.165319	 0.784187	 3.516649	-5.225038	 0.466231	 0.424329	-0.000002	-3.783157	-0.089647	-1.938126	 5.039931	 0.085291	 89.782100	 78.203850	 180.000000	-62.318120	 39.586080	 57.177670	 4.937397	 4.398365	 11.527070	 28.468240	 1.547193	 7.889199	 6.112037	 4.509576	-0.364401	 4.968462	 1.518543	-9.347576	 5.168945	 0.703820	 2.021906
-0.000402	 0.020710	 1.257039	 0.003743	 0.009091	-0.053628	-5.498458	-6.411800	 179.040700	 1.290963	-21.860420	-1.322509	-9.637947	 76.338560	 3.572680	-2.385833	 28.452760	 0.000004	 5.382017	-6.821459	-178.915600	-1.271641	-22.237030	 1.322957	 9.404032	 76.370670	-3.487269	 2.384658	 28.388730	 0.000004	 1.285395	 2.725963	-0.000159	 0.666999	 3.638936	 0.336249	-2.004598	-4.627896	-0.472501	-91.776160	 78.527470	 180.000000	 63.942070	 42.366800	-55.709250	-7.838873	 3.520100	-8.828468	-29.060710	 4.111231	-4.360995	-2.635965	 4.993658	 6.788941	-5.165319	 0.784187	 3.516649	-5.225038	 0.466231	 0.424329	-0.000002	-3.783157	-0.089647	-1.937786	 5.042741	 0.085323	 89.782150	 78.203900	 180.000000	-61.730660	 39.041790	 57.521050	 4.293375	 4.388455	 11.894970	 28.397710	 1.222448	 7.624900	 6.112037	 4.509576	-0.364401	 4.968462	 1.518543	-9.347576	 5.168945	 0.703820	 2.021906
-0.000402	 0.020831	 1.255339	 0.003745	 0.009078	-0.053619	-5.557603	-6.862899	 179.078300	 1.267182	-22.791330	-1.385112	-10.108150	 76.805900	 4.056695	-2.385833	 28.452760	 0.000004	 5.441998	-7.265598	-178.951900	-1.248178	-23.153220	 1.383763	 9.857376	 76.830730	-3.953936	 2.384658	 28.388730	 0.000004	 1.285103	 2.727536	-0.000187	 0.666798	 3.633535	 0.336209	-2.004036	-4.621017	-0.472201	-91.776210	 78.527470	-180.000000	 63.865670	 42.368480	-55.603970	-7.825797	 3.527188	-8.846433	-29.060750	 4.111213	-4.360989	-2.635965	 4.993658	 6.788941	-5.165319	 0.784187	 3.516649	-5.225038	 0.466231	 0.424329	-0.000002	-3.783157	-0.089647	-1.937382	 5.046006	 0.085361	 89.782110	 78.203890	 180.000000	-60.782290	 38.296140	 57.572720	 3.502872	 4.611533	 13.019110	 28.315880	 0.846679	 7.319119	 6.112037	 4.509576	-0.364401	 4.968462	 1.518543	-9.347576	 5.168945	 0.703820	 2.021906
